<?xml version="1.0" ?><!DOCTYPE svg  PUBLIC '-//W3C//DTD SVG 1.1//EN'  'http://www.w3.org/Graphics/SVG/1.1/DTD/svg11.dtd' [
	<!ENTITY stroke_color "#010101">
	<!ENTITY fill_color "#FFFFFF">
]><svg enable-background="new 0 0 55 55" height="55px" version="1.1" viewBox="0 0 55 55" width="55px" x="0px" xml:space="preserve" xmlns="http://www.w3.org/2000/svg" xmlns:xlink="http://www.w3.org/1999/xlink" y="0px"><g display="block" id="activity-terminal">
	
		<rect fill="&fill_color;" height="32.442" stroke="&stroke_color;" stroke-linecap="round" stroke-width="3.5" width="43.457" x="5.646" y="9.404"/>
	<g>
		<path d="M15.531,27.872h-1.187l-0.007-2.205    c-0.61-0.024-1.201-0.093-1.772-0.205s-1.128-0.269-1.67-0.469v-1.919c0.562,0.288,1.129,0.509,1.703,0.663    c0.573,0.153,1.156,0.24,1.747,0.26v-2.278l-0.242-0.044c-1.167-0.205-1.996-0.527-2.486-0.967    c-0.491-0.439-0.736-1.072-0.736-1.897c0-0.874,0.3-1.557,0.899-2.047c0.6-0.491,1.455-0.758,2.565-0.802l0.007-1.692h1.179v1.663    c0.488,0.039,0.977,0.1,1.465,0.183s0.979,0.19,1.473,0.322v1.86c-0.488-0.205-0.977-0.365-1.465-0.479s-0.979-0.185-1.472-0.209    v2.102l0.234,0.044c1.24,0.195,2.11,0.521,2.611,0.978c0.5,0.457,0.75,1.131,0.75,2.025c0,0.898-0.297,1.588-0.893,2.069    c-0.596,0.481-1.497,0.756-2.703,0.824V27.872z M14.345,19.544v-1.912c-0.347,0.02-0.624,0.114-0.832,0.282    c-0.208,0.169-0.311,0.382-0.311,0.641c0,0.288,0.095,0.514,0.286,0.677C13.678,19.396,13.964,19.5,14.345,19.544z M15.531,21.932    v2.036c0.425-0.005,0.744-0.088,0.956-0.249c0.213-0.161,0.319-0.403,0.319-0.725c0-0.332-0.098-0.58-0.293-0.744    C16.317,22.087,15.99,21.98,15.531,21.932z" fill="&stroke_color;" stroke="&stroke_color;" stroke-width="0.5"/>
		<path d="M27.646,27.813v1.392h-7.501v-1.392H27.646z" fill="&stroke_color;" stroke="&stroke_color;" stroke-width="0.5"/>
	</g>
</g></svg>